<?xml version="1.0" encoding="utf-8"?><svg xmlns="http://www.w3.org/2000/svg" xmlns:xlink="http://www.w3.org/1999/xlink"><symbol fill="none" viewBox="0 0 24 24" id="about-icon-1" xmlns="http://www.w3.org/2000/svg"><path d="M6 22h15v-2H6.012C5.55 19.988 5 19.805 5 19c0-.805.55-.988 1.012-1H21V4c0-1.103-.897-2-2-2H6c-1.206 0-3 .799-3 3v14c0 2.201 1.794 3 3 3zM5 8V5c0-.805.55-.988 1-1h13v12H5V8z" fill="#262626"/><path d="M8 6h9v2H8V6z" fill="#262626"/></symbol><symbol fill="none" viewBox="0 0 24 24" id="about-icon-2" xmlns="http://www.w3.org/2000/svg"><path d="M21 3h-7a2.98 2.98 0 00-2 .78A2.98 2.98 0 0010 3H3a1 1 0 00-1 1v15a1 1 0 001 1h5.758c.526 0 1.042.214 1.414.586l1.121 1.121c.009.009.021.012.03.021.086.079.182.149.294.196h.002a.996.996 0 00.762 0h.002c.112-.047.208-.117.294-.196.009-.009.021-.012.03-.021l1.121-1.121A2.015 2.015 0 0115.242 20H21a1 1 0 001-1V4a1 1 0 00-1-1zM8.758 18H4V5h6c.552 0 1 .449 1 1v12.689A4.031 4.031 0 008.758 18zM20 18h-4.758c-.799 0-1.584.246-2.242.689V6c0-.551.448-1 1-1h6v13z" fill="#262626"/></symbol><symbol fill="none" viewBox="0 0 24 24" id="about-icon-3" xmlns="http://www.w3.org/2000/svg"><path d="M7.5 14.5c-1.58 0-2.903 1.06-3.337 2.5H2v2h2.163c.434 1.44 1.757 2.5 3.337 2.5 1.58 0 2.903-1.06 3.337-2.5H22v-2H10.837c-.434-1.44-1.757-2.5-3.337-2.5zm0 5c-.827 0-1.5-.673-1.5-1.5s.673-1.5 1.5-1.5S9 17.173 9 18s-.673 1.5-1.5 1.5zm9-11c-1.58 0-2.903 1.06-3.337 2.5H2v2h11.163c.434 1.44 1.757 2.5 3.337 2.5 1.58 0 2.903-1.06 3.337-2.5H22v-2h-2.163c-.434-1.44-1.757-2.5-3.337-2.5zm0 5c-.827 0-1.5-.673-1.5-1.5s.673-1.5 1.5-1.5 1.5.673 1.5 1.5-.673 1.5-1.5 1.5z" fill="#262626"/><path d="M12.837 5C12.403 3.56 11.08 2.5 9.5 2.5 7.92 2.5 6.597 3.56 6.163 5H2v2h4.163C6.597 8.44 7.92 9.5 9.5 9.5c1.58 0 2.903-1.06 3.337-2.5h9.288V5h-9.288zM9.5 7.5C8.673 7.5 8 6.827 8 6s.673-1.5 1.5-1.5S11 5.173 11 6s-.673 1.5-1.5 1.5z" fill="#262626"/></symbol><symbol fill="none" viewBox="0 0 24 24" id="about-icon-4" xmlns="http://www.w3.org/2000/svg"><path d="M9 20h6v2H9v-2zm7.906-6.288C17.936 12.506 19 11.259 19 9c0-3.859-3.141-7-7-7S5 5.141 5 9c0 2.285 1.067 3.528 2.101 4.73.358.418.729.851 1.084 1.349.144.206.38.996.591 1.921H8v2h8v-2h-.774c.213-.927.45-1.719.593-1.925.352-.503.726-.94 1.087-1.363zm-2.724.213c-.434.617-.796 2.075-1.006 3.075h-2.351c-.209-1.002-.572-2.463-1.011-3.08a20.5 20.5 0 00-1.196-1.492C7.644 11.294 7 10.544 7 9c0-2.757 2.243-5 5-5s5 2.243 5 5c0 1.521-.643 2.274-1.615 3.413-.373.438-.796.933-1.203 1.512z" fill="#262626"/></symbol><symbol fill="none" viewBox="0 0 24 24" id="about-icon-5" xmlns="http://www.w3.org/2000/svg"><path d="M6.516 14.323l-1.49 6.452a.998.998 0 001.529 1.057L12 18.202l5.445 3.63a1.001 1.001 0 001.517-1.106l-1.829-6.4 4.536-4.082a1 1 0 00-.59-1.74l-5.701-.454-2.467-5.461a.997.997 0 00-1.822 0L8.622 8.05l-5.701.453a1 1 0 00-.619 1.713l4.214 4.107zm2.853-4.326a.998.998 0 00.832-.586L12 5.43l1.799 3.981a.998.998 0 00.832.586l3.972.315-3.271 2.944c-.284.256-.397.65-.293 1.018l1.253 4.385-3.736-2.491a.995.995 0 00-1.109 0l-3.904 2.603 1.05-4.546a1 1 0 00-.276-.94l-3.038-2.962 4.09-.326z" fill="#262626"/></symbol><symbol fill="none" viewBox="0 0 24 24" id="about-icon-6" xmlns="http://www.w3.org/2000/svg"><path d="M12 22c3.976 0 8-1.374 8-4V6c0-2.626-4.024-4-8-4S4 3.374 4 6v12c0 2.626 4.024 4 8 4zm0-2c-3.722 0-6-1.295-6-2v-1.268C7.541 17.57 9.777 18 12 18s4.459-.43 6-1.268V18c0 .705-2.278 2-6 2zm0-16c3.722 0 6 1.295 6 2 0 .705-2.278 2-6 2S6 6.705 6 6c0-.705 2.278-2 6-2zM6 8.732C7.541 9.57 9.777 10 12 10s4.459-.43 6-1.268V10c0 .705-2.278 2-6 2s-6-1.295-6-2V8.732zm0 4C7.541 13.57 9.777 14 12 14s4.459-.43 6-1.268V14c0 .705-2.278 2-6 2s-6-1.295-6-2v-1.268z" fill="#262626"/></symbol><symbol viewBox="0 0 24 24" id="arrow-down" xmlns="http://www.w3.org/2000/svg"><path d="M16.513 8L12 12.823 7.487 8 6 9.589 12 16l6-6.411L16.513 8z"/></symbol><symbol fill="none" viewBox="0 0 24 37" id="logo" xmlns="http://www.w3.org/2000/svg"><path d="M7.765 9.113V7.95v-.755c.021-1.855 2.07-3.465 3.748-3.465 1.677 0 3.727 1.59 3.747 3.465V9.113c.021 1.345.207 2.467.497 3.445l3.292-5.137v-.265C19.03 3.058 15.053 0 11.534 0c-3.52 0-7.495 3.058-7.557 7.156v.265l3.27 5.137c.29-.978.498-2.1.518-3.445zM15.985 32.7c-.807.184-2.277.428-4.472.428-2.195 0-3.665-.244-4.472-.428-.104-.265-.228-.51-.331-.775H2.63c.374.959.808 1.978 1.285 3.058l.31.694.725.285c.227.081 2.36.897 6.563.897 4.203 0 6.336-.795 6.563-.897l.725-.286.31-.693c.477-1.08.911-2.1 1.284-3.058h-4.079c-.103.265-.207.51-.33.775z" fill="#5065A9"/><path d="M20.879 13.197c-.145-.244-.27-.468-.415-.712-.02-.061-.062-.102-.082-.163a7.033 7.033 0 01-.29-.55 11.114 11.114 0 01-.56-1.323l-7.995 12.478L3.543 10.47c-.145.468-.353.895-.56 1.323-.083.163-.186.346-.269.509-.041.06-.062.142-.104.203-.124.224-.269.468-.414.692-2.154 3.644-3.459 7.084-.29 15.878H.415v1.038h7.414v-1.038H5.946c-2.154-5.598-2.402-8.651-1.905-10.81l7.497 11.705 7.498-11.704c.497 2.137.249 5.21-1.905 10.809h-1.74v1.038h7.415v-1.038h-1.616c3.128-8.794 1.844-12.254-.31-15.878z" fill="#E6676E"/></symbol><symbol fill="none" viewBox="0 0 137 35" id="logo-text" xmlns="http://www.w3.org/2000/svg"><path d="M10.646 9.523h2.009V8.485H4.764v1.038H6.71l.083.753c0 .346-.062.713-.207 1.12-.041.06-.124.224-.248.448-.332.59-.56.956-.663 1.099l-.766 1.12c-1.43 2.096-2.424 3.786-3.045 5.109C1.035 20.962.62 22.449.62 23.629c0 .876.249 1.609.766 2.158.498.55 1.202.835 2.072.835.683 0 1.346-.244 2.03-.713 1.242-.875 2.298-2.402 3.148-4.539.414-1.038.683-1.913.828-2.585l1.885 6.453H9.424v1.038h7.622v-1.038h-1.74l-4.66-15.715zM7.995 19.05c-.953 2.484-2.01 3.705-3.19 3.705-.85 0-1.326-.407-1.45-1.221v-.652c.124-.936.31-1.71.6-2.32l.54-1.14.662-1.221c.6-1.12 1.43-2.382 2.423-3.766l1.119 3.97c-.104.773-.352 1.668-.704 2.645zM35.128 8.485l-.683.122-1.119.163c-.331.04-.849.061-1.595.061H22.37c-.58.04-1.098.02-1.595-.061l-1.098-.163c-.31-.081-.538-.122-.704-.122-.767 0-1.14.326-1.119.957 0 .142.104.488.332.997l.435 1.018c.103.244.165.448.207.59.145.672.207 1.018.207 1.079.02.224.041.428.041.651.021.265.083.469.187.631a.56.56 0 00.559.367c.29 0 .456-.082.497-.244l.187-.428.145-.57c.29-1.12.559-1.913.787-2.402.227-.488.497-.814.766-.977.27-.183.683-.265 1.201-.265h1.678v15.349H22.97v1.038h8.14v-1.038h-2.113V9.869h1.098c.6 0 1.077.04 1.388.143.725.223 1.305 1.12 1.719 2.666l.373 1.425.207.448c.145.142.29.204.476.204.332 0 .601-.448.787-1.364.27-1.283.415-1.934.415-1.934l.455-1.038c.207-.468.311-.794.311-.977 0-.224-.083-.448-.27-.672-.206-.204-.496-.285-.828-.285zM46.188 8.485a7.09 7.09 0 00-3.707 1.018 5.717 5.717 0 00-2.403 2.809l-.083 12.905h-2.112v1.038h8.14v-1.038H43.91V19.6l1.74-2.239.56.285 1.097.509c.228.102.56.142.994.142.808 0 1.553-.224 2.216-.651 1.388-.916 2.092-2.3 2.092-4.193 0-.896-.27-1.73-.787-2.524-1.118-1.629-2.983-2.443-5.634-2.443zm.29 8.04l-.435-.122-.497-.305-1.615 2.015v-3.949c0-.834.062-1.69.186-2.565.187-1.384.829-2.076 1.906-2.076 1.429 0 2.133 1.303 2.133 3.888-.02 2.076-.58 3.114-1.678 3.114zM68.288 24.22l-.27-.814-.145-1.018c-.02-.143-.082-.489-.207-1.079-.041-.285-.248-.428-.58-.428-.269 0-.435.062-.476.184l-.186.366-.145.489c-.332 1.058-.622 1.77-.912 2.137-.352.468-.745.774-1.16.957l-.642.142-.745.04h-2.092V17.91h3.334v-1.1h-3.334V9.87h2.071l.766.04.642.142c.415.163.808.489 1.16.957.29.366.6 1.079.912 2.137l.145.489.186.366c.041.122.207.184.476.184.332 0 .539-.143.58-.428.125-.59.187-.936.207-1.079l.145-1.018.27-.814.248-.672c.145-.407.228-.651.228-.753 0-.55-.207-.855-.58-.936C69.51 7.752 70.4 6.368 70.4 4.78c0-2.34-1.926-4.254-4.329-4.254-2.381 0-4.328 1.893-4.328 4.254 0 1.873 1.242 3.46 2.94 4.03H58.76c1.201-.447 2.071-1.608 2.071-2.951 0-1.75-1.45-3.175-3.23-3.175-1.782 0-3.232 1.424-3.232 3.175 0 1.343.85 2.504 2.071 2.952h-1.78v1.038h2.112V25.197h-2.113v1.038h2.983v.326c0 .977.621 1.811 1.49 2.137l-2.67 6.107h.62l3.294-5.944h.165l.27 5.944h.6l.249-5.944h.165l3.294 5.944h.621l-2.755-6.29a2.274 2.274 0 001.098-1.954v-.326h.104c1.056 0 1.967.061 2.734.204l.58.101.414.041c.56 0 .828-.326.828-.977 0-.102-.082-.346-.227-.753l-.228-.631zM69.365 4.8a.912.912 0 01-1.823 0c0-.488.414-.895.911-.895.498 0 .912.387.912.896zm-2.072-2.93c.498 0 .912.406.912.895a.912.912 0 01-1.823 0c0-.489.394-.896.911-.896zm0 4.05c.498 0 .912.407.912.896a.912.912 0 01-1.823 0c0-.489.394-.896.911-.896zM64.87 1.87c.497 0 .911.406.911.895a.912.912 0 01-1.822 0c0-.489.414-.896.911-.896zM62.8 4.8a.912.912 0 011.823 0 .912.912 0 01-1.823 0zm1.16 2.016a.912.912 0 011.822 0 .912.912 0 01-.91.895.898.898 0 01-.912-.895zm-3.894-.937a.684.684 0 01-1.367 0 .684.684 0 011.367 0zm-1.553-2.198c.372 0 .683.305.683.672a.684.684 0 01-1.367 0c0-.367.31-.672.684-.672zm0 3.033c.372 0 .683.305.683.672a.684.684 0 01-1.367 0c0-.367.31-.672.684-.672zM56.71 3.68c.372 0 .683.305.683.672a.684.684 0 01-1.367 0c0-.367.31-.672.684-.672zm-1.533 2.198a.684.684 0 011.367 0 .684.684 0 01-1.367 0zm.85 1.507a.684.684 0 011.366 0 .684.684 0 01-1.367 0zM92.562 9.87h1.76v15.347h-5.136V9.87h1.76V8.831h-7.435v1.038h1.76v15.348h-5.116V9.87h1.74V8.831h-7.788v1.038h2.113v15.348h-2.113v1.059h26.243v-1.059h-2.113V9.87h2.113V8.831h-7.788v1.038zM116.319 20.698a7.06 7.06 0 00-2.547-2.605c-.87-.51-2.051-.937-3.501-1.262 1.036-1.975 1.595-3.013 1.678-3.115l.456-.671c.269-.387.497-.652.683-.794a1.955 1.955 0 011.326-.51c.414 0 .87.103 1.367.306l.808.326h.497l.083-1.201.103-.814.539-1.405a5.558 5.558 0 00-2.237-.448c-.684 0-1.243.143-1.678.448-.87.59-1.657 1.588-2.403 3.033l-.973 1.893-.249.468-.683 1.486-.352.692h-.932V9.87h1.74V8.831h-7.788v1.038h2.112v15.348h-2.112v1.038h7.601v-1.038h-1.574v-7.816c1.761.386 3.003 1.12 3.749 2.218.704 1.039 1.036 2.443.973 4.255l-.041 1.343h-.994v1.038h6.897v-1.038h-1.512c-.021-1.832-.352-3.358-1.036-4.519zM135.085 25.217l-4.66-15.694h2.009V8.485h-7.891v1.038h1.947l.083.753c0 .346-.063.713-.208 1.12-.041.06-.124.224-.248.448-.331.59-.559.956-.663 1.099l-.766 1.12c-1.429 2.096-2.424 3.786-3.045 5.109-.828 1.79-1.243 3.277-1.243 4.457 0 .876.249 1.609.767 2.158.518.55 1.201.835 2.071.835.683 0 1.346-.244 2.03-.713 1.242-.875 2.299-2.402 3.148-4.539.414-1.038.683-1.913.828-2.585l1.885 6.453h-1.926v1.038h7.601v-1.038h-1.719v-.02zm-7.311-6.168c-.953 2.484-2.009 3.705-3.19 3.705-.849 0-1.325-.407-1.45-1.221v-.652c.125-.936.332-1.71.601-2.32l.539-1.14.662-1.221c.601-1.12 1.429-2.382 2.444-3.766l1.119 3.97c-.124.773-.352 1.668-.725 2.645z" fill="#E6676E"/><path d="M74.107 17.604v-3.867l-.642-.896-5.385 2.646v4.214l5.385 2.646.642-.896v-3.847z" fill="#E6676E"/></symbol><symbol viewBox="0 0 18 18" id="mic" xmlns="http://www.w3.org/2000/svg"><path d="M12 9V4.5c0-1.663-1.339-3.016-2.984-3.016a.7.7 0 00-.157.019A3.005 3.005 0 006 4.5V9c0 1.655 1.346 3 3 3 1.655 0 3-1.345 3-3zM7.5 9V4.5C7.5 3.673 8.173 3 9 3a.667.667 0 00.122-.011C9.891 3.045 10.5 3.7 10.5 4.5V9c0 .827-.673 1.5-1.5 1.5S7.5 9.827 7.5 9z"/><path d="M4.5 9H3c0 3.054 2.296 5.577 5.25 5.948V16.5h1.5v-1.552C12.704 14.577 15 12.055 15 9h-1.5c0 2.482-2.018 4.5-4.5 4.5A4.504 4.504 0 014.5 9z"/></symbol><symbol viewBox="0 0 16 4" id="more" xmlns="http://www.w3.org/2000/svg"><path d="M10 2c0-1.1-.9-2-2-2S6 .9 6 2s.9 2 2 2 2-.9 2-2zm6 0c0-1.1-.9-2-2-2s-2 .9-2 2 .9 2 2 2 2-.9 2-2zM4 2c0-1.1-.9-2-2-2S0 .9 0 2s.9 2 2 2 2-.9 2-2z"/></symbol><symbol viewBox="0 0 24 24" id="news" xmlns="http://www.w3.org/2000/svg"><path d="M19.875 3H4.125C2.953 3 2 3.897 2 5v14c0 1.103.953 2 2.125 2h15.75C21.047 21 22 20.103 22 19V5c0-1.103-.953-2-2.125-2zm0 16H4.125c-.057 0-.096-.016-.113-.016-.007 0-.011.002-.012.008L3.988 5.046c.007-.01.052-.046.137-.046h15.75c.079.001.122.028.125.008l.012 13.946c-.007.01-.052.046-.137.046z"/><path d="M6 7h6v6H6V7zm7 8H6v2h12v-2h-5zm1-4h4v2h-4v-2zm0-4h4v2h-4V7z"/></symbol><symbol viewBox="0 0 15 15" id="search" xmlns="http://www.w3.org/2000/svg"><path d="M6.5 12.5a5.964 5.964 0 003.673-1.266l3.297 3.297 1.06-1.06-3.297-3.297A5.964 5.964 0 0012.5 6.5c0-3.308-2.692-6-6-6s-6 2.692-6 6 2.692 6 6 6zM6.5 2C8.982 2 11 4.018 11 6.5S8.982 11 6.5 11A4.505 4.505 0 012 6.5C2 4.018 4.018 2 6.5 2z"/></symbol></svg>