<svg width="284" height="309" viewBox="0 0 284 309" fill="none" xmlns="http://www.w3.org/2000/svg">
<path d="M219.053 216.195H199.887V207.719C199.887 206.324 200.303 204.93 201.033 203.642C201.658 202.462 202.595 201.282 203.533 200.209C204.47 199.136 205.616 198.17 206.658 197.097C207.699 196.132 208.741 195.166 209.678 194.093C210.616 193.128 211.345 192.055 211.866 190.982C212.387 190.016 212.699 188.943 212.699 187.763C212.699 187.012 212.595 186.261 212.283 185.51C212.074 184.866 211.658 184.222 211.241 183.686C210.824 183.149 210.199 182.72 209.574 182.398C208.949 182.077 208.22 181.969 207.387 181.969C206.241 181.969 205.408 182.184 204.678 182.506C204.053 182.935 203.533 183.364 203.116 184.008C202.699 184.651 202.491 185.403 202.387 186.261C202.283 187.227 202.178 188.192 202.178 189.158V190.553C202.178 190.982 202.178 191.304 202.283 191.733L202.491 193.128H181.866L181.762 192.055C181.658 191.411 181.658 190.767 181.553 190.123C181.449 189.48 181.449 188.836 181.449 188.085C181.449 184.652 182.178 181.433 183.637 178.643C185.095 175.854 187.074 173.493 189.574 171.455C192.074 169.523 195.095 168.021 198.428 166.948C201.762 165.983 205.512 165.446 209.47 165.446C213.324 165.446 216.866 165.983 220.095 166.948C223.324 167.914 226.137 169.416 228.428 171.347C230.72 173.279 232.595 175.639 233.949 178.321C235.199 181.004 235.928 184.115 235.928 187.441C235.928 189.909 235.512 192.162 234.574 194.093C233.741 196.024 232.595 197.741 231.241 199.243C229.991 200.745 228.533 202.033 227.074 203.213C225.616 204.286 224.262 205.359 223.012 206.324C221.866 207.183 220.824 208.041 219.991 208.899C219.366 209.543 219.053 210.08 219.053 210.616V216.195ZM202.283 213.728H216.658V210.616C216.658 209.436 217.178 208.256 218.22 207.075C219.053 206.217 220.199 205.251 221.449 204.286C222.699 203.32 224.053 202.355 225.512 201.174C226.866 200.101 228.22 198.921 229.366 197.527C230.512 196.239 231.553 194.63 232.283 193.02C233.012 191.411 233.428 189.48 233.428 187.441C233.428 184.544 232.803 181.862 231.762 179.502C230.616 177.141 229.053 175.103 226.97 173.386C224.887 171.669 222.387 170.382 219.366 169.416C216.449 168.45 213.116 168.021 209.47 168.021C205.72 168.021 202.178 168.45 199.053 169.416C195.928 170.382 193.22 171.776 190.928 173.493C188.741 175.21 186.97 177.356 185.72 179.823C184.47 182.291 183.845 185.081 183.845 188.192C183.845 188.836 183.845 189.372 183.949 189.909C183.949 190.123 184.053 190.445 184.053 190.66H199.783V190.553V189.158C199.783 188.085 199.887 186.905 199.991 185.832C200.199 184.651 200.512 183.579 201.137 182.72C201.658 181.755 202.491 181.004 203.533 180.36C204.574 179.716 205.824 179.502 207.387 179.502C208.637 179.502 209.678 179.716 210.616 180.253C211.553 180.682 212.387 181.325 213.012 182.076C213.637 182.828 214.158 183.686 214.574 184.759C214.887 185.724 215.095 186.797 215.095 187.87C215.095 189.48 214.678 190.982 214.053 192.269C213.428 193.449 212.491 194.737 211.553 195.81C210.616 196.883 209.47 197.956 208.428 199.029C207.387 199.994 206.345 200.96 205.408 201.925C204.47 202.891 203.741 203.857 203.22 204.822C202.699 205.681 202.491 206.646 202.491 207.612V213.728H202.283Z" fill="#E6676E"/>
<path d="M219.254 238.947H199.879V220.171H219.254V238.947ZM202.275 236.479H216.858V222.639H202.275V236.479Z" fill="#E6676E"/>
<path d="M264.17 250.53H245.316V242.268C245.316 240.874 245.628 239.479 246.357 238.299C246.982 237.118 247.816 236.045 248.857 234.973C249.795 233.9 250.837 232.934 251.982 231.968C253.024 231.003 253.962 230.037 254.899 229.071C255.732 228.106 256.462 227.033 257.087 226.067C257.607 225.102 257.816 224.136 257.816 222.956C257.816 222.205 257.712 221.454 257.503 220.703C257.295 220.059 256.982 219.415 256.462 218.879C256.045 218.342 255.524 217.913 254.795 217.591C254.17 217.269 253.441 217.162 252.607 217.162C251.462 217.162 250.628 217.377 250.003 217.699C249.378 218.128 248.857 218.557 248.545 219.201C248.128 219.844 247.92 220.595 247.816 221.454C247.712 222.419 247.607 223.385 247.607 224.351V225.638C247.607 226.067 247.607 226.389 247.712 226.818L247.92 228.213H227.712L227.607 227.14C227.503 226.496 227.503 225.853 227.399 225.316C227.295 224.673 227.295 224.029 227.295 223.278C227.295 219.844 228.024 216.733 229.378 213.943C230.732 211.261 232.712 208.901 235.212 206.969C237.607 205.038 240.628 203.536 243.962 202.57C247.295 201.605 250.941 201.068 254.795 201.068C258.545 201.068 262.087 201.605 265.212 202.57C268.337 203.536 271.149 205.038 273.337 206.862C275.628 208.686 277.399 211.046 278.649 213.729C279.899 216.411 280.524 219.415 280.524 222.634C280.524 225.102 280.107 227.248 279.17 229.179C278.337 231.003 277.191 232.719 275.941 234.222C274.691 235.724 273.337 237.011 271.774 238.084C270.316 239.157 269.066 240.23 267.816 241.088C266.67 241.946 265.628 242.805 264.899 243.556C264.274 244.2 264.066 244.736 264.066 245.273V250.53H264.17ZM247.712 248.062H261.774V245.058C261.774 243.878 262.295 242.698 263.337 241.625C264.17 240.766 265.316 239.801 266.566 238.835C267.816 237.869 269.066 236.904 270.524 235.831C271.878 234.758 273.128 233.578 274.274 232.29C275.42 231.003 276.357 229.501 277.191 227.891C277.92 226.282 278.337 224.458 278.337 222.419C278.337 219.523 277.816 216.948 276.67 214.587C275.524 212.227 273.962 210.295 271.982 208.579C269.899 206.969 267.503 205.575 264.587 204.716C261.67 203.858 258.441 203.321 254.899 203.321C251.253 203.321 247.816 203.751 244.691 204.716C241.67 205.682 238.962 206.969 236.774 208.686C234.587 210.403 232.816 212.441 231.67 214.909C230.42 217.269 229.795 220.059 229.795 223.063C229.795 223.707 229.795 224.243 229.899 224.78C229.899 224.994 229.899 225.316 230.003 225.531H245.316V225.424V224.243C245.316 223.17 245.42 222.098 245.524 221.025C245.732 219.844 246.045 218.879 246.566 217.913C247.087 216.948 247.92 216.196 248.857 215.553C249.899 214.909 251.149 214.694 252.607 214.694C253.753 214.694 254.899 214.909 255.837 215.445C256.774 215.875 257.607 216.518 258.232 217.269C258.857 218.02 259.378 218.879 259.691 219.844C260.003 220.81 260.212 221.776 260.212 222.849C260.212 224.458 259.899 225.853 259.17 227.14C258.545 228.32 257.712 229.501 256.67 230.681C255.732 231.754 254.691 232.827 253.545 233.792C252.503 234.758 251.566 235.724 250.628 236.689C249.795 237.655 249.066 238.62 248.441 239.586C247.92 240.444 247.712 241.41 247.712 242.376V248.062V248.062Z" fill="#E6676E"/>
<path d="M264.377 272.741H245.314V254.287H264.377V272.741ZM247.71 270.273H261.981V256.755H247.71V270.273Z" fill="#E6676E"/>
<path d="M260.517 178.751H245.413V171.992C245.413 170.811 245.725 169.739 246.246 168.773C246.767 167.915 247.392 166.949 248.225 166.091C248.954 165.34 249.788 164.481 250.621 163.73C251.454 162.979 252.184 162.228 252.913 161.477C253.538 160.726 254.163 159.975 254.579 159.224C254.996 158.58 255.1 157.829 255.1 156.971C255.1 156.435 254.996 155.898 254.788 155.362C254.579 154.825 254.371 154.396 254.059 154.074C253.746 153.752 253.329 153.43 252.913 153.216C252.496 153.001 251.975 152.894 251.35 152.894C250.517 152.894 249.892 153.001 249.475 153.323C249.059 153.645 248.642 153.967 248.434 154.396C248.121 154.825 248.017 155.362 247.913 156.005C247.809 156.756 247.704 157.4 247.704 158.151V159.224C247.704 159.546 247.704 159.761 247.809 160.082L248.017 161.477H231.871L231.663 158.902C231.559 158.366 231.559 157.829 231.559 157.293C231.559 154.611 232.079 152.143 233.225 149.997C234.371 147.851 235.829 146.028 237.809 144.418C239.684 142.916 241.975 141.736 244.684 140.985C247.288 140.234 250.1 139.805 253.121 139.805C256.038 139.805 258.746 140.234 261.246 140.985C263.746 141.736 265.829 142.916 267.704 144.311C269.475 145.813 270.934 147.637 271.975 149.675C273.017 151.821 273.434 154.182 273.434 156.649C273.434 158.58 273.121 160.297 272.392 161.799C271.663 163.301 270.829 164.589 269.788 165.769C268.746 166.949 267.704 167.915 266.559 168.88C265.413 169.739 264.475 170.49 263.538 171.241C262.6 171.884 261.871 172.528 261.35 173.172C260.934 173.601 260.725 173.923 260.725 174.245V178.751H260.517ZM247.809 176.283H258.121V174.245C258.121 173.279 258.538 172.314 259.371 171.348C259.996 170.704 260.934 169.953 261.871 169.202C262.809 168.451 263.85 167.7 264.892 166.842C265.934 166.091 266.871 165.125 267.809 164.052C268.642 163.087 269.371 161.906 269.996 160.726C270.517 159.546 270.829 158.151 270.829 156.649C270.829 154.503 270.413 152.465 269.579 150.748C268.746 149.032 267.496 147.422 266.038 146.242C264.475 144.955 262.6 143.989 260.413 143.345C258.225 142.594 255.725 142.272 253.017 142.272C250.204 142.272 247.6 142.594 245.204 143.345C242.913 144.096 240.829 145.062 239.163 146.349C237.496 147.637 236.142 149.246 235.309 151.07C234.371 152.894 233.954 154.933 233.954 157.293C233.954 157.722 233.954 158.151 234.059 158.58V158.902H245.413V158.044C245.413 157.186 245.517 156.327 245.621 155.469C245.725 154.503 246.038 153.645 246.454 153.001C246.871 152.25 247.6 151.607 248.329 151.07C249.163 150.534 250.204 150.319 251.454 150.319C252.392 150.319 253.329 150.534 254.059 150.856C254.788 151.177 255.413 151.714 255.934 152.358C256.454 153.001 256.871 153.645 257.184 154.503C257.496 155.254 257.6 156.113 257.6 156.971C257.6 158.259 257.288 159.439 256.767 160.512C256.246 161.477 255.621 162.443 254.788 163.301C254.059 164.159 253.225 164.911 252.392 165.769C251.559 166.52 250.829 167.271 250.1 168.022C249.475 168.773 248.85 169.417 248.434 170.168C248.017 170.811 247.913 171.455 247.913 172.206V176.283H247.809Z" fill="#E6676E"/>
<path d="M260.727 195.91H245.414V181.104H260.727V195.91ZM247.81 193.442H258.331V183.571H247.81V193.442Z" fill="#E6676E"/>
<path d="M253.855 0.328125H251.855V140.987H253.855V0.328125Z" fill="#E6676E"/>
<path d="M246.556 270.363H0.0976562V272.363H246.556V270.363Z" fill="#E6676E"/>
</svg>
