<svg width="375" height="364" viewBox="0 0 375 364" fill="none" xmlns="http://www.w3.org/2000/svg">
<path d="M292.08 288.263H266.525V276.961C266.525 275.101 267.08 273.242 268.053 271.525C268.886 269.951 270.136 268.378 271.386 266.947C272.636 265.517 274.164 264.229 275.553 262.799C276.941 261.511 278.33 260.224 279.58 258.793C280.83 257.506 281.803 256.075 282.497 254.645C283.191 253.357 283.608 251.926 283.608 250.353C283.608 249.351 283.469 248.35 283.053 247.349C282.775 246.49 282.219 245.632 281.664 244.917C281.108 244.201 280.275 243.629 279.441 243.2C278.608 242.771 277.636 242.628 276.525 242.628C274.997 242.628 273.886 242.914 272.914 243.343C272.08 243.915 271.386 244.488 270.83 245.346C270.275 246.204 269.997 247.206 269.858 248.35C269.719 249.638 269.58 250.925 269.58 252.213V254.072C269.58 254.645 269.58 255.074 269.719 255.646L269.997 257.506H242.497L242.358 256.075C242.219 255.217 242.219 254.358 242.08 253.5C241.941 252.642 241.941 251.783 241.941 250.782C241.941 246.204 242.914 241.913 244.858 238.193C246.803 234.474 249.441 231.326 252.775 228.608C256.108 226.033 260.136 224.031 264.58 222.6C269.025 221.313 274.025 220.597 279.303 220.597C284.441 220.597 289.164 221.313 293.469 222.6C297.775 223.888 301.525 225.89 304.58 228.465C307.636 231.04 310.136 234.188 311.941 237.764C313.608 241.34 314.58 245.489 314.58 249.924C314.58 253.214 314.025 256.218 312.775 258.793C311.664 261.368 310.136 263.657 308.33 265.66C306.664 267.663 304.719 269.379 302.775 270.953C300.83 272.383 299.025 273.814 297.358 275.101C295.83 276.246 294.441 277.39 293.33 278.535C292.497 279.393 292.08 280.108 292.08 280.824V288.263ZM269.719 284.972H288.886V280.824C288.886 279.25 289.58 277.676 290.969 276.103C292.08 274.958 293.608 273.671 295.275 272.383C296.941 271.096 298.747 269.808 300.691 268.235C302.497 266.804 304.303 265.231 305.83 263.371C307.358 261.654 308.747 259.508 309.719 257.363C310.691 255.217 311.247 252.642 311.247 249.924C311.247 246.061 310.414 242.485 309.025 239.338C307.497 236.19 305.414 233.472 302.636 231.183C299.858 228.895 296.525 227.178 292.497 225.89C288.608 224.603 284.164 224.031 279.303 224.031C274.303 224.031 269.58 224.603 265.414 225.89C261.247 227.178 257.636 229.038 254.58 231.326C251.664 233.615 249.303 236.476 247.636 239.767C245.969 243.057 245.136 246.776 245.136 250.925C245.136 251.783 245.136 252.499 245.275 253.214C245.275 253.5 245.414 253.929 245.414 254.215H266.386V254.072V252.213C266.386 250.782 266.525 249.208 266.664 247.778C266.941 246.204 267.358 244.774 268.191 243.629C268.886 242.342 269.997 241.34 271.386 240.482C272.775 239.624 274.441 239.338 276.525 239.338C278.191 239.338 279.58 239.624 280.83 240.339C282.08 240.911 283.191 241.77 284.025 242.771C284.858 243.772 285.553 244.917 286.108 246.347C286.525 247.635 286.803 249.065 286.803 250.496C286.803 252.642 286.247 254.645 285.414 256.361C284.58 257.935 283.33 259.651 282.08 261.082C280.83 262.513 279.303 263.943 277.914 265.374C276.525 266.661 275.136 267.949 273.886 269.236C272.636 270.524 271.664 271.811 270.969 273.099C270.275 274.243 269.997 275.531 269.997 276.818V284.972H269.719Z" fill="#E6676E"/>
<path d="M292.353 318.595H266.52V293.561H292.353V318.595ZM269.714 315.305H289.158V296.851H269.714V315.305Z" fill="#E6676E"/>
<path d="M352.237 334.033H327.098V323.017C327.098 321.158 327.515 319.298 328.487 317.724C329.32 316.151 330.431 314.72 331.82 313.29C333.07 311.859 334.459 310.572 335.987 309.284C337.376 307.997 338.626 306.709 339.876 305.422C340.987 304.134 341.959 302.704 342.793 301.416C343.487 300.129 343.765 298.841 343.765 297.267C343.765 296.266 343.626 295.265 343.348 294.263C343.07 293.405 342.654 292.547 341.959 291.831C341.404 291.116 340.709 290.544 339.737 290.115C338.904 289.686 337.931 289.542 336.82 289.542C335.293 289.542 334.181 289.829 333.348 290.258C332.515 290.83 331.82 291.402 331.404 292.261C330.848 293.119 330.57 294.12 330.431 295.265C330.293 296.552 330.154 297.84 330.154 299.127V300.844C330.154 301.416 330.154 301.845 330.293 302.417L330.57 304.277H303.626L303.487 302.847C303.348 301.988 303.348 301.13 303.209 300.415C303.07 299.556 303.07 298.698 303.07 297.697C303.07 293.119 304.043 288.97 305.848 285.251C307.654 281.674 310.293 278.527 313.626 275.952C316.82 273.377 320.848 271.374 325.293 270.087C329.737 268.799 334.598 268.084 339.737 268.084C344.737 268.084 349.459 268.799 353.626 270.087C357.793 271.374 361.543 273.377 364.459 275.809C367.515 278.241 369.876 281.388 371.543 284.965C373.209 288.541 374.043 292.547 374.043 296.838C374.043 300.129 373.487 302.99 372.237 305.565C371.126 307.997 369.598 310.286 367.931 312.288C366.265 314.291 364.459 316.008 362.376 317.438C360.431 318.869 358.765 320.299 357.098 321.444C355.57 322.588 354.181 323.733 353.209 324.734C352.376 325.592 352.098 326.308 352.098 327.023V334.033H352.237ZM330.293 330.742H349.043V326.737C349.043 325.163 349.737 323.59 351.126 322.159C352.237 321.015 353.765 319.727 355.431 318.44C357.098 317.152 358.765 315.865 360.709 314.434C362.515 313.004 364.181 311.43 365.709 309.713C367.237 307.997 368.487 305.994 369.598 303.848C370.57 301.702 371.126 299.27 371.126 296.552C371.126 292.69 370.431 289.256 368.904 286.109C367.376 282.962 365.293 280.387 362.654 278.098C359.876 275.952 356.681 274.092 352.793 272.948C348.904 271.804 344.598 271.088 339.876 271.088C335.015 271.088 330.431 271.661 326.265 272.948C322.237 274.236 318.626 275.952 315.709 278.241C312.793 280.53 310.431 283.248 308.904 286.538C307.237 289.686 306.404 293.405 306.404 297.411C306.404 298.269 306.404 298.984 306.543 299.699C306.543 299.986 306.543 300.415 306.681 300.701H327.098V300.558V298.984C327.098 297.554 327.237 296.123 327.376 294.692C327.654 293.119 328.07 291.831 328.765 290.544C329.459 289.256 330.57 288.255 331.82 287.397C333.209 286.538 334.876 286.252 336.82 286.252C338.348 286.252 339.876 286.538 341.126 287.254C342.376 287.826 343.487 288.684 344.32 289.686C345.154 290.687 345.848 291.831 346.265 293.119C346.681 294.406 346.959 295.694 346.959 297.124C346.959 299.27 346.543 301.13 345.57 302.847C344.737 304.42 343.626 305.994 342.237 307.567C340.987 308.998 339.598 310.429 338.07 311.716C336.681 313.004 335.431 314.291 334.181 315.579C333.07 316.866 332.098 318.154 331.265 319.441C330.57 320.586 330.293 321.873 330.293 323.161V330.742V330.742Z" fill="#E6676E"/>
<path d="M352.514 363.649H327.098V339.044H352.514V363.649ZM330.292 360.358H349.32V342.334H330.292V360.358Z" fill="#E6676E"/>
<path d="M347.361 238.336H327.222V229.324C327.222 227.75 327.639 226.32 328.333 225.032C329.028 223.888 329.861 222.601 330.972 221.456C331.944 220.455 333.056 219.31 334.167 218.309C335.278 217.308 336.25 216.306 337.222 215.305C338.056 214.303 338.889 213.302 339.444 212.301C340 211.442 340.139 210.441 340.139 209.297C340.139 208.581 340 207.866 339.722 207.151C339.444 206.436 339.167 205.863 338.75 205.434C338.333 205.005 337.778 204.576 337.222 204.29C336.667 204.004 335.972 203.861 335.139 203.861C334.028 203.861 333.194 204.004 332.639 204.433C332.083 204.862 331.528 205.291 331.25 205.863C330.833 206.436 330.694 207.151 330.556 208.009C330.417 209.01 330.278 209.869 330.278 210.87V212.301C330.278 212.73 330.278 213.016 330.417 213.445L330.694 215.305H309.167L308.889 211.872C308.75 211.156 308.75 210.441 308.75 209.726C308.75 206.149 309.444 202.859 310.972 199.998C312.5 197.137 314.444 194.705 317.083 192.559C319.583 190.557 322.639 188.983 326.25 187.982C329.722 186.98 333.472 186.408 337.5 186.408C341.389 186.408 345 186.98 348.333 187.982C351.667 188.983 354.444 190.557 356.944 192.416C359.306 194.419 361.25 196.851 362.639 199.569C364.028 202.43 364.583 205.577 364.583 208.867C364.583 211.442 364.167 213.731 363.194 215.734C362.222 217.737 361.111 219.453 359.722 221.027C358.333 222.601 356.944 223.888 355.417 225.175C353.889 226.32 352.639 227.321 351.389 228.323C350.139 229.181 349.167 230.039 348.472 230.898C347.917 231.47 347.639 231.899 347.639 232.328V238.336H347.361ZM330.417 235.046H344.167V232.328C344.167 231.041 344.722 229.753 345.833 228.466C346.667 227.607 347.917 226.606 349.167 225.605C350.417 224.603 351.806 223.602 353.194 222.457C354.583 221.456 355.833 220.169 357.083 218.738C358.194 217.451 359.167 215.877 360 214.303C360.694 212.73 361.111 210.87 361.111 208.867C361.111 206.006 360.556 203.288 359.444 200.999C358.333 198.711 356.667 196.565 354.722 194.991C352.639 193.275 350.139 191.987 347.222 191.129C344.306 190.127 340.972 189.698 337.361 189.698C333.611 189.698 330.139 190.127 326.944 191.129C323.889 192.13 321.111 193.418 318.889 195.134C316.667 196.851 314.861 198.997 313.75 201.429C312.5 203.861 311.944 206.579 311.944 209.726C311.944 210.298 311.944 210.87 312.083 211.442V211.872H327.222V210.727C327.222 209.583 327.361 208.438 327.5 207.294C327.639 206.006 328.056 204.862 328.611 204.004C329.167 203.002 330.139 202.144 331.111 201.429C332.222 200.713 333.611 200.427 335.278 200.427C336.528 200.427 337.778 200.713 338.75 201.143C339.722 201.572 340.556 202.287 341.25 203.145C341.944 204.004 342.5 204.862 342.917 206.006C343.333 207.008 343.472 208.152 343.472 209.297C343.472 211.013 343.056 212.587 342.361 214.017C341.667 215.305 340.833 216.592 339.722 217.737C338.75 218.881 337.639 219.883 336.528 221.027C335.417 222.028 334.444 223.03 333.472 224.031C332.639 225.032 331.806 225.891 331.25 226.892C330.694 227.75 330.556 228.609 330.556 229.61V235.046H330.417Z" fill="#E6676E"/>
<path d="M347.643 261.218H327.227V241.476H347.643V261.218ZM330.421 257.927H344.449V244.767H330.421V257.927Z" fill="#E6676E"/>
<path d="M338.784 0.4375H335.816V187.983H338.784V0.4375Z" fill="#E6676E"/>
<path d="M328.752 360.485H0.140625V363.519H328.752V360.485Z" fill="#E6676E"/>
</svg>
