<svg width="567" height="400" viewBox="0 0 567 400" fill="none" xmlns="http://www.w3.org/2000/svg">
<path d="M414.034 272.604H377.809V256.584C377.809 253.948 378.596 251.312 379.974 248.879C381.156 246.648 382.928 244.418 384.699 242.39C386.471 240.362 388.637 238.537 390.606 236.509C392.574 234.684 394.543 232.859 396.315 230.831C398.087 229.006 399.465 226.979 400.449 224.951C401.434 223.126 402.024 221.098 402.024 218.868C402.024 217.448 401.828 216.029 401.237 214.609C400.843 213.393 400.056 212.176 399.268 211.162C398.481 210.148 397.299 209.337 396.118 208.729C394.937 208.12 393.559 207.918 391.984 207.918C389.818 207.918 388.243 208.323 386.865 208.931C385.684 209.743 384.699 210.554 383.912 211.77C383.124 212.987 382.731 214.406 382.534 216.029C382.337 217.854 382.14 219.679 382.14 221.504V224.14C382.14 224.951 382.14 225.559 382.337 226.37L382.731 229.006H343.749L343.553 226.979C343.356 225.762 343.356 224.545 343.159 223.329C342.962 222.112 342.962 220.895 342.962 219.476C342.962 212.987 344.34 206.904 347.096 201.631C349.853 196.359 353.593 191.898 358.318 188.045C363.043 184.395 368.753 181.556 375.053 179.529C381.353 177.704 388.44 176.69 395.921 176.69C403.206 176.69 409.899 177.704 416.003 179.529C422.106 181.354 427.421 184.193 431.753 187.843C436.084 191.493 439.628 195.954 442.187 201.023C444.549 206.093 445.928 211.973 445.928 218.259C445.928 222.923 445.14 227.181 443.368 230.831C441.793 234.481 439.628 237.726 437.068 240.565C434.706 243.404 431.949 245.837 429.193 248.068C426.437 250.095 423.878 252.123 421.515 253.948C419.349 255.57 417.381 257.193 415.806 258.815C414.624 260.031 414.034 261.045 414.034 262.059V272.604ZM382.337 267.94H409.506V262.059C409.506 259.829 410.49 257.598 412.459 255.368C414.034 253.745 416.199 251.92 418.562 250.095C420.924 248.27 423.484 246.445 426.24 244.215C428.799 242.187 431.359 239.956 433.524 237.32C435.69 234.887 437.659 231.845 439.037 228.804C440.415 225.762 441.203 222.112 441.203 218.259C441.203 212.784 440.021 207.715 438.053 203.254C435.887 198.793 432.934 194.94 428.996 191.695C425.059 188.451 420.334 186.018 414.624 184.193C409.112 182.368 402.812 181.556 395.921 181.556C388.834 181.556 382.14 182.368 376.234 184.193C370.328 186.018 365.209 188.654 360.878 191.898C356.743 195.143 353.396 199.198 351.034 203.862C348.671 208.526 347.49 213.798 347.49 219.679C347.49 220.895 347.49 221.909 347.687 222.923C347.687 223.329 347.884 223.937 347.884 224.343H377.612V224.14V221.504C377.612 219.476 377.809 217.245 378.006 215.218C378.399 212.987 378.99 210.959 380.171 209.337C381.156 207.512 382.731 206.093 384.699 204.876C386.668 203.659 389.031 203.254 391.984 203.254C394.346 203.254 396.315 203.659 398.087 204.673C399.859 205.484 401.434 206.701 402.615 208.12C403.796 209.54 404.781 211.162 405.568 213.19C406.159 215.015 406.553 217.043 406.553 219.07C406.553 222.112 405.765 224.951 404.584 227.384C403.403 229.615 401.631 232.048 399.859 234.076C398.087 236.104 395.921 238.131 393.953 240.159C391.984 241.984 390.015 243.809 388.243 245.634C386.471 247.459 385.093 249.284 384.109 251.109C383.124 252.731 382.731 254.556 382.731 256.381V267.94H382.337Z" fill="#E6676E"/>
<path d="M414.424 315.597H377.806V280.11H414.424V315.597ZM382.334 310.933H409.896V284.774H382.334V310.933Z" fill="#E6676E"/>
<path d="M499.293 337.484H463.659V321.87C463.659 319.234 464.25 316.598 465.628 314.367C466.809 312.137 468.384 310.109 470.353 308.081C472.125 306.054 474.093 304.229 476.259 302.404C478.228 300.579 480 298.754 481.771 296.929C483.346 295.104 484.725 293.076 485.906 291.251C486.89 289.426 487.284 287.601 487.284 285.37C487.284 283.951 487.087 282.531 486.693 281.112C486.3 279.895 485.709 278.679 484.725 277.665C483.937 276.651 482.953 275.84 481.575 275.231C480.393 274.623 479.015 274.42 477.44 274.42C475.275 274.42 473.7 274.826 472.518 275.434C471.337 276.245 470.353 277.056 469.762 278.273C468.975 279.49 468.581 280.909 468.384 282.531C468.187 284.356 467.99 286.181 467.99 288.006V290.44C467.99 291.251 467.99 291.859 468.187 292.67L468.581 295.306H430.387L430.19 293.279C429.993 292.062 429.993 290.845 429.796 289.831C429.6 288.615 429.6 287.398 429.6 285.979C429.6 279.49 430.978 273.609 433.537 268.337C436.096 263.267 439.837 258.806 444.562 255.156C449.09 251.506 454.8 248.667 461.1 246.842C467.4 245.017 474.29 244.004 481.575 244.004C488.662 244.004 495.356 245.017 501.262 246.842C507.168 248.667 512.484 251.506 516.618 254.954C520.95 258.401 524.296 262.862 526.659 267.931C529.021 273.001 530.203 278.679 530.203 284.762C530.203 289.426 529.415 293.481 527.643 297.131C526.068 300.579 523.903 303.823 521.54 306.662C519.178 309.501 516.618 311.934 513.665 313.962C510.909 315.99 508.547 318.017 506.184 319.64C504.018 321.262 502.05 322.884 500.672 324.304C499.49 325.52 499.096 326.534 499.096 327.548V337.484H499.293ZM468.187 332.82H494.765V327.142C494.765 324.912 495.75 322.681 497.718 320.654C499.293 319.031 501.459 317.206 503.821 315.381C506.184 313.556 508.547 311.731 511.303 309.704C513.862 307.676 516.225 305.445 518.39 303.012C520.556 300.579 522.328 297.74 523.903 294.698C525.281 291.656 526.068 288.209 526.068 284.356C526.068 278.881 525.084 274.015 522.918 269.554C520.753 265.092 517.8 261.442 514.059 258.198C510.122 255.156 505.593 252.52 500.081 250.898C494.568 249.276 488.465 248.262 481.771 248.262C474.881 248.262 468.384 249.073 462.478 250.898C456.768 252.723 451.65 255.156 447.515 258.401C443.381 261.645 440.034 265.498 437.868 270.162C435.506 274.623 434.325 279.895 434.325 285.573C434.325 286.79 434.325 287.804 434.521 288.817C434.521 289.223 434.521 289.831 434.718 290.237H463.659V290.034V287.804C463.659 285.776 463.856 283.748 464.053 281.72C464.446 279.49 465.037 277.665 466.021 275.84C467.006 274.015 468.581 272.595 470.353 271.379C472.321 270.162 474.684 269.756 477.44 269.756C479.606 269.756 481.772 270.162 483.543 271.176C485.315 271.987 486.89 273.204 488.071 274.623C489.253 276.042 490.237 277.665 490.828 279.49C491.418 281.315 491.812 283.14 491.812 285.167C491.812 288.209 491.222 290.845 489.843 293.279C488.662 295.509 487.087 297.74 485.118 299.97C483.346 301.998 481.378 304.026 479.212 305.851C477.243 307.676 475.472 309.501 473.7 311.326C472.125 313.151 470.746 314.976 469.565 316.801C468.581 318.423 468.187 320.248 468.187 322.073V332.82Z" fill="#E6676E"/>
<path d="M499.687 379.455H463.659V344.577H499.687V379.455ZM468.187 374.791H495.159V349.241H468.187V374.791Z" fill="#E6676E"/>
<path d="M492.388 201.83H463.841V189.055C463.841 186.824 464.431 184.797 465.416 182.972C466.4 181.349 467.581 179.524 469.156 177.902C470.534 176.483 472.109 174.861 473.684 173.441C475.259 172.022 476.638 170.602 478.016 169.183C479.197 167.763 480.378 166.344 481.166 164.924C481.953 163.708 482.15 162.288 482.15 160.666C482.15 159.652 481.953 158.638 481.559 157.624C481.166 156.611 480.772 155.799 480.181 155.191C479.591 154.583 478.803 153.974 478.016 153.569C477.228 153.163 476.244 152.961 475.062 152.961C473.487 152.961 472.306 153.163 471.519 153.772C470.731 154.38 469.944 154.988 469.55 155.799C468.959 156.611 468.762 157.624 468.566 158.841C468.369 160.261 468.172 161.477 468.172 162.897V164.924C468.172 165.533 468.172 165.938 468.369 166.547L468.763 169.183H438.247L437.853 164.316C437.656 163.302 437.656 162.288 437.656 161.274C437.656 156.205 438.641 151.541 440.806 147.486C442.972 143.43 445.728 139.983 449.469 136.941C453.012 134.102 457.344 131.872 462.462 130.452C467.384 129.033 472.7 128.222 478.409 128.222C483.922 128.222 489.041 129.033 493.766 130.452C498.491 131.872 502.428 134.102 505.972 136.738C509.319 139.577 512.075 143.024 514.044 146.877C516.013 150.933 516.8 155.394 516.8 160.058C516.8 163.708 516.209 166.952 514.831 169.791C513.453 172.63 511.878 175.063 509.909 177.294C507.941 179.524 505.972 181.349 503.806 183.174C501.641 184.797 499.869 186.216 498.097 187.636C496.325 188.852 494.947 190.069 493.962 191.286C493.175 192.097 492.781 192.705 492.781 193.313V201.83H492.388ZM468.369 197.166H487.859V193.313C487.859 191.488 488.647 189.663 490.222 187.838C491.403 186.622 493.175 185.202 494.947 183.783C496.719 182.363 498.688 180.944 500.656 179.322C502.625 177.902 504.397 176.077 506.169 174.049C507.744 172.224 509.122 169.994 510.303 167.763C511.288 165.533 511.878 162.897 511.878 160.058C511.878 156.002 511.091 152.149 509.516 148.905C507.941 145.661 505.578 142.619 502.822 140.388C499.869 137.955 496.325 136.13 492.191 134.913C488.056 133.494 483.331 132.886 478.212 132.886C472.897 132.886 467.975 133.494 463.447 134.913C459.116 136.333 455.178 138.158 452.028 140.591C448.878 143.024 446.319 146.066 444.744 149.513C442.972 152.961 442.184 156.813 442.184 161.274C442.184 162.086 442.184 162.897 442.381 163.708V164.316H463.841V162.694C463.841 161.072 464.038 159.449 464.234 157.827C464.431 156.002 465.022 154.38 465.809 153.163C466.597 151.744 467.975 150.527 469.353 149.513C470.928 148.499 472.897 148.094 475.259 148.094C477.031 148.094 478.803 148.499 480.181 149.108C481.559 149.716 482.741 150.73 483.725 151.947C484.709 153.163 485.497 154.38 486.087 156.002C486.678 157.422 486.875 159.044 486.875 160.666C486.875 163.099 486.284 165.33 485.3 167.358C484.316 169.183 483.134 171.008 481.559 172.63C480.181 174.252 478.606 175.672 477.031 177.294C475.456 178.713 474.078 180.133 472.7 181.552C471.519 182.972 470.337 184.188 469.55 185.608C468.762 186.824 468.566 188.041 468.566 189.461V197.166H468.369Z" fill="#E6676E"/>
<path d="M492.782 234.272H463.842V206.288H492.782V234.272ZM468.37 229.608H488.254V210.952H468.37V229.608Z" fill="#E6676E"/>
<path d="M480.228 -135.387H476.021V130.454H480.228V-135.387Z" fill="#E6676E"/>
<path d="M466.009 374.98H0.203125V379.281H466.009V374.98Z" fill="#E6676E"/>
</svg>
