<svg width="24" height="37" viewBox="0 0 24 37" fill="none" xmlns="http://www.w3.org/2000/svg">
<path d="M7.76544 9.11281C7.76544 8.90894 7.76544 8.39928 7.76544 7.95077C7.76544 7.62459 7.76544 7.33917 7.76544 7.19647C7.78614 5.34129 9.83586 3.73075 11.5129 3.73075C13.1899 3.73075 15.2397 5.3209 15.2604 7.19647C15.2604 7.33917 15.2604 7.62459 15.2604 7.95077C15.2604 8.39928 15.2604 8.90894 15.2604 9.11281C15.2811 10.4583 15.4674 11.5796 15.7573 12.5581L19.0492 7.42072C19.0492 7.31879 19.0492 7.21685 19.0492 7.15569C19.0285 3.05799 15.0533 0 11.5336 0C8.01389 0 4.03868 3.05799 3.97656 7.15569C3.97656 7.21685 3.97656 7.2984 3.97656 7.42072L7.24783 12.5581C7.53769 11.5796 7.74473 10.4583 7.76544 9.11281Z" fill="#5065A9"/>
<path d="M15.9851 32.7001C15.1776 32.8836 13.7076 33.1282 11.513 33.1282C9.31832 33.1282 7.84832 32.8836 7.04086 32.7001C6.93734 32.4351 6.81311 32.1904 6.70959 31.9254H2.63086C3.00354 32.8836 3.43832 33.9029 3.91452 34.9834L4.22508 35.6765L4.94973 35.962C5.17748 36.0435 7.31001 36.859 11.513 36.859C15.7159 36.859 17.8485 36.0639 18.0762 35.962L18.8009 35.6765L19.1114 34.9834C19.5876 33.9029 20.0224 32.8836 20.3951 31.9254H16.3164C16.2128 32.1904 16.1093 32.4351 15.9851 32.7001Z" fill="#5065A9"/>
<path d="M20.8786 13.1973C20.7336 12.953 20.6093 12.7291 20.4643 12.4848C20.4436 12.4238 20.4022 12.3831 20.3815 12.322C20.2779 12.1388 20.1744 11.9556 20.0915 11.7724C19.8844 11.3653 19.698 10.9175 19.5323 10.4493L11.5374 22.9273L3.54251 10.4696C3.39752 10.9378 3.1904 11.3653 2.98328 11.7928C2.90043 11.9556 2.79687 12.1388 2.71402 12.3016C2.6726 12.3627 2.65188 12.4441 2.61046 12.5052C2.48619 12.7291 2.3412 12.9734 2.19622 13.1973C0.042153 16.841 -1.26271 20.2811 1.90625 29.0747H0.414972V30.1129H2.27906H6.35936H7.82992V29.0747H5.94511C3.79105 23.4769 3.54251 20.4236 4.0396 18.2659L11.5374 29.9704L19.0352 18.2659C19.5323 20.4032 19.2837 23.4769 17.1297 29.0747H15.3899V30.1129H16.7154H20.7957H22.8048V29.0747H21.1893C24.3168 20.2811 23.0326 16.8206 20.8786 13.1973Z" fill="#E6676E"/>
</svg>
