<svg width="137" height="35" viewBox="0 0 137 35" fill="none" xmlns="http://www.w3.org/2000/svg">
<path d="M10.6458 9.52306H12.6548V8.48492H4.76352V9.52306H6.71046L6.79331 10.2762C6.79331 10.6223 6.73118 10.9887 6.58619 11.3958C6.54477 11.4569 6.46192 11.6197 6.33765 11.8436C6.00625 12.4339 5.77842 12.8003 5.67486 12.9428L4.90851 14.0624C3.47937 16.159 2.48519 17.8485 1.86382 19.1716C1.03534 20.9629 0.621094 22.4489 0.621094 23.6295C0.621094 24.5048 0.86964 25.2376 1.38744 25.7872C1.88454 26.3368 2.58875 26.6218 3.45866 26.6218C4.14216 26.6218 4.80495 26.3776 5.48845 25.9094C6.73117 25.0341 7.78749 23.5074 8.63669 21.3701C9.05093 20.3319 9.32019 19.4566 9.46518 18.7849L11.35 25.2376H9.42375V26.2758H17.0458V25.2376H15.306L10.6458 9.52306ZM7.99462 19.0495C7.04186 21.5329 5.98554 22.7542 4.80495 22.7542C3.95575 22.7542 3.47937 22.3471 3.3551 21.5329V20.8815C3.47937 19.9452 3.66578 19.1716 3.95575 18.561L4.49426 17.4211L5.15705 16.1997C5.75771 15.0802 6.58619 13.8181 7.58037 12.4339L8.69883 16.4033C8.59527 17.1768 8.34672 18.0724 7.99462 19.0495Z" fill="#E6676E"/>
<path d="M35.1283 8.48492L34.4448 8.60706L33.3263 8.7699C32.9949 8.81062 32.4771 8.83097 31.7315 8.83097H22.846H22.3696C21.7896 8.87168 21.2718 8.85133 20.7747 8.7699L19.677 8.60706C19.3663 8.52564 19.1385 8.48492 18.9728 8.48492C18.2064 8.48492 17.8336 8.81062 17.8543 9.44164C17.8543 9.58413 17.9579 9.93018 18.1857 10.4391L18.6207 11.4569C18.7242 11.7011 18.7864 11.9047 18.8278 12.0472C18.9728 12.7189 19.0349 13.0649 19.0349 13.126C19.0556 13.3499 19.0764 13.5535 19.0764 13.7774C19.0971 14.042 19.1592 14.2456 19.2628 14.4084C19.3663 14.6527 19.5527 14.7748 19.822 14.7748C20.112 14.7748 20.2777 14.6934 20.3191 14.5306L20.5055 14.1031L20.6505 13.5331C20.9404 12.4136 21.2097 11.6197 21.4375 11.1312C21.6654 10.6426 21.9346 10.3169 22.2039 10.1541C22.4731 9.97089 22.8874 9.88946 23.4052 9.88946H25.0829V25.2376H22.9702V26.2758H31.1101V25.2376H28.9975V9.86911H30.0952C30.6959 9.86911 31.1722 9.90982 31.4829 10.0116C32.2078 10.2355 32.7878 11.1312 33.202 12.6782L33.5748 14.1031L33.782 14.5509C33.927 14.6934 34.0719 14.7545 34.2583 14.7545C34.5897 14.7545 34.859 14.3066 35.0454 13.3906C35.3147 12.1082 35.4597 11.4569 35.4597 11.4569L35.9153 10.4187C36.1224 9.95053 36.226 9.62484 36.226 9.44164C36.226 9.21773 36.1432 8.99382 35.9567 8.7699C35.7496 8.56635 35.4597 8.48492 35.1283 8.48492Z" fill="#E6676E"/>
<path d="M46.1884 8.48492C44.8421 8.48492 43.5994 8.83097 42.4809 9.50271C41.3625 10.1744 40.5547 11.1312 40.0783 12.3118L39.9954 25.2173H37.8828V26.2554H46.0227V25.2173H43.9101V19.5991L45.6499 17.36L46.2091 17.645L47.3068 18.1539C47.5347 18.2556 47.8661 18.2964 48.301 18.2964C49.1088 18.2964 49.8544 18.0724 50.5172 17.645C51.9049 16.729 52.6092 15.3448 52.6092 13.4517C52.6092 12.5561 52.3399 11.7215 51.8221 10.9276C50.7036 9.29915 48.8395 8.48492 46.1884 8.48492ZM46.4784 16.5254L46.0434 16.4033L45.5463 16.0979L43.9308 18.1132V14.1642C43.9308 13.3296 43.9929 12.4746 44.1172 11.5993C44.3036 10.2152 44.9457 9.52306 46.0227 9.52306C47.4518 9.52306 48.156 10.8258 48.156 13.411C48.1353 15.4873 47.5761 16.5254 46.4784 16.5254Z" fill="#E6676E"/>
<path d="M68.2877 24.2198L68.0184 23.4056L67.8734 22.3878C67.8527 22.2453 67.7906 21.8993 67.6663 21.309C67.6249 21.024 67.4178 20.8815 67.0864 20.8815C66.8171 20.8815 66.6514 20.9426 66.61 21.0647L66.4236 21.4311L66.2786 21.9196C65.9472 22.9781 65.6572 23.6906 65.3673 24.057C65.0152 24.5252 64.6216 24.8305 64.2074 25.0137L63.5653 25.1562L62.8197 25.1969H60.7278V21.7975V17.9096H64.0624V16.8104H60.7278V9.86907H62.799L63.5653 9.90978L64.2074 10.0523C64.6216 10.2151 65.0152 10.5408 65.3673 11.009C65.6572 11.3754 65.9679 12.0878 66.2786 13.1463L66.4236 13.6349L66.61 14.0013C66.6514 14.1234 66.8171 14.1845 67.0864 14.1845C67.4178 14.1845 67.6249 14.042 67.6663 13.757C67.7906 13.1667 67.8527 12.8206 67.8734 12.6782L68.0184 11.6604L68.2877 10.8461L68.5362 10.1744C68.6812 9.76729 68.7641 9.52302 68.7641 9.42124C68.7641 8.87164 68.5569 8.56631 68.1841 8.48488C69.5097 7.75208 70.4003 6.36789 70.4003 4.78015C70.4003 2.43925 68.4741 0.525818 66.0715 0.525818C63.6896 0.525818 61.7427 2.41889 61.7427 4.78015C61.7427 6.65287 62.9854 8.24062 64.6838 8.81057C64.5181 8.81057 64.3524 8.81057 64.1867 8.81057H58.7601C59.9614 8.36275 60.8313 7.20248 60.8313 5.859C60.8313 4.10842 59.3815 2.68352 57.6002 2.68352C55.819 2.68352 54.3691 4.10842 54.3691 5.859C54.3691 7.20248 55.2183 8.36275 56.4404 8.81057H54.6591V9.84871H56.7717V21.655V25.1969H54.6591V26.235H57.6417V26.5607C57.6417 27.5378 58.263 28.3724 59.1329 28.6981L56.4611 34.8048H57.0824L60.3757 28.8609H60.5414L60.8106 34.8048H61.1006H61.4113L61.6598 28.8609H61.7427C61.7634 28.8609 61.8048 28.8609 61.8255 28.8609L65.1187 34.8048H65.7401L62.9854 28.5149C63.6482 28.1077 64.0831 27.3953 64.0831 26.5607V26.235H64.1867C65.243 26.235 66.1543 26.2961 66.9207 26.4386L67.5006 26.5404L67.9149 26.5811C68.4741 26.5811 68.7434 26.2554 68.7434 25.604C68.7434 25.5022 68.6605 25.258 68.5155 24.8508L68.2877 24.2198ZM69.3647 4.80051C69.3647 5.28904 68.9505 5.69616 68.4534 5.69616C67.9563 5.69616 67.5421 5.28904 67.5421 4.80051C67.5421 4.31197 67.9563 3.90486 68.4534 3.90486C68.9505 3.90486 69.3647 4.29162 69.3647 4.80051ZM67.2935 1.86929C67.7906 1.86929 68.2048 2.27641 68.2048 2.76494C68.2048 3.25348 67.7906 3.66059 67.2935 3.66059C66.7964 3.66059 66.3822 3.25348 66.3822 2.76494C66.3822 2.27641 66.7757 1.86929 67.2935 1.86929ZM67.2935 5.92007C67.7906 5.92007 68.2048 6.32718 68.2048 6.81572C68.2048 7.30425 67.7906 7.71137 67.2935 7.71137C66.7964 7.71137 66.3822 7.30425 66.3822 6.81572C66.3822 6.32718 66.7757 5.92007 67.2935 5.92007ZM64.8702 1.86929C65.3673 1.86929 65.7815 2.27641 65.7815 2.76494C65.7815 3.25348 65.3673 3.66059 64.8702 3.66059C64.3731 3.66059 63.9589 3.25348 63.9589 2.76494C63.9589 2.27641 64.3731 1.86929 64.8702 1.86929ZM62.799 4.80051C62.799 4.31197 63.2132 3.90486 63.7103 3.90486C64.2074 3.90486 64.6216 4.31197 64.6216 4.80051C64.6216 5.28904 64.2074 5.69616 63.7103 5.69616C63.2132 5.69616 62.799 5.28904 62.799 4.80051ZM63.9589 6.81572C63.9589 6.32718 64.3731 5.92007 64.8702 5.92007C65.3673 5.92007 65.7815 6.32718 65.7815 6.81572C65.7815 7.30425 65.3673 7.71137 64.8702 7.71137C64.3731 7.71137 63.9589 7.32461 63.9589 6.81572ZM60.065 5.87936C60.065 6.24576 59.7543 6.5511 59.3815 6.5511C59.0087 6.5511 58.698 6.24576 58.698 5.87936C58.698 5.51296 59.0087 5.20762 59.3815 5.20762C59.7543 5.20762 60.065 5.51296 60.065 5.87936ZM58.5116 3.68095C58.8844 3.68095 59.1951 3.98628 59.1951 4.35268C59.1951 4.71909 58.8844 5.02442 58.5116 5.02442C58.1387 5.02442 57.8281 4.71909 57.8281 4.35268C57.8281 3.98628 58.1387 3.68095 58.5116 3.68095ZM58.5116 6.71394C58.8844 6.71394 59.1951 7.01928 59.1951 7.38568C59.1951 7.75208 58.8844 8.05741 58.5116 8.05741C58.1387 8.05741 57.8281 7.75208 57.8281 7.38568C57.8281 7.01928 58.1387 6.71394 58.5116 6.71394ZM56.7096 3.68095C57.0824 3.68095 57.3931 3.98628 57.3931 4.35268C57.3931 4.71909 57.0824 5.02442 56.7096 5.02442C56.3368 5.02442 56.0261 4.71909 56.0261 4.35268C56.0261 3.98628 56.3368 3.68095 56.7096 3.68095ZM55.1769 5.87936C55.1769 5.51296 55.4876 5.20762 55.8604 5.20762C56.2332 5.20762 56.5439 5.51296 56.5439 5.87936C56.5439 6.24576 56.2332 6.5511 55.8604 6.5511C55.4876 6.5511 55.1769 6.24576 55.1769 5.87936ZM56.0261 7.38568C56.0261 7.01928 56.3368 6.71394 56.7096 6.71394C57.0824 6.71394 57.3931 7.01928 57.3931 7.38568C57.3931 7.75208 57.0824 8.05741 56.7096 8.05741C56.3368 8.05741 56.0261 7.75208 56.0261 7.38568Z" fill="#E6676E"/>
<path d="M92.5619 9.86907H94.3225V25.2172H89.1859V9.86907H90.9464V8.83093H83.5107V9.86907H85.2713V25.2172H80.1554V9.86907H81.8952V8.83093H74.1074V9.86907H76.2201V25.2172H74.1074V26.2757H100.35V25.2172H98.2371V9.86907H100.35V8.83093H92.5619V9.86907Z" fill="#E6676E"/>
<path d="M116.319 20.6983C115.677 19.5787 114.828 18.7238 113.772 18.0928C112.902 17.5839 111.721 17.1564 110.271 16.8307C111.307 14.8562 111.866 13.8181 111.949 13.7163L112.405 13.0446C112.674 12.6578 112.902 12.3932 113.088 12.2507C113.461 11.925 113.896 11.7418 114.414 11.7418C114.828 11.7418 115.284 11.8436 115.781 12.0471L116.589 12.3728H117.086L117.169 11.1718L117.272 10.3576L117.811 8.95307C117.106 8.64774 116.361 8.50525 115.574 8.50525C114.89 8.50525 114.331 8.64774 113.896 8.95307C113.026 9.54339 112.239 10.5408 111.493 11.9861L110.52 13.8791L110.271 14.3473L109.588 15.8333L109.236 16.5254H108.304V9.86908H110.044V8.83094H102.256V9.86908H104.368V25.2173H102.256V26.2554H109.857V25.2173H108.283V17.4007C110.044 17.7874 111.286 18.5202 112.032 19.6194C112.736 20.6576 113.068 22.0621 113.005 23.8738L112.964 25.2173H111.97V26.2554H118.867V25.2173H117.355C117.334 23.3852 117.003 21.8586 116.319 20.6983Z" fill="#E6676E"/>
<path d="M135.085 25.2173L130.425 9.52306H132.434V8.48492H124.543V9.52306H126.49L126.573 10.2762C126.573 10.6223 126.51 10.9887 126.365 11.3958C126.324 11.4569 126.241 11.6197 126.117 11.8436C125.786 12.4339 125.558 12.8003 125.454 12.9428L124.688 14.0624C123.259 16.159 122.264 17.8485 121.643 19.1716C120.815 20.9629 120.4 22.4489 120.4 23.6295C120.4 24.5048 120.649 25.2376 121.167 25.7872C121.685 26.3368 122.368 26.6218 123.238 26.6218C123.921 26.6218 124.584 26.3776 125.268 25.9094C126.51 25.0341 127.567 23.5074 128.416 21.3701C128.83 20.3319 129.099 19.4566 129.244 18.7849L131.129 25.2376H129.203V26.2758H136.804V25.2376H135.085V25.2173ZM127.774 19.0495C126.821 21.5329 125.765 22.7542 124.584 22.7542C123.735 22.7542 123.259 22.3471 123.134 21.5329V20.8815C123.259 19.9452 123.466 19.1716 123.735 18.561L124.274 17.4211L124.936 16.1997C125.537 15.0802 126.365 13.8181 127.38 12.4339L128.499 16.4033C128.375 17.1768 128.147 18.0724 127.774 19.0495Z" fill="#E6676E"/>
<path d="M74.1073 17.6042V13.7367L73.4653 12.841L68.0801 15.4872V19.7009L73.4653 22.3471L74.1073 21.4515V17.6042Z" fill="#E6676E"/>
</svg>
